<svg width="34" height="34" viewBox="0 0 34 34" fill="none" xmlns="http://www.w3.org/2000/svg">
<circle cx="17" cy="17" r="16.5" stroke="#A3A3A3"/>
<path d="M19.1523 14.9141V13.5454H21.5181C23.0139 13.5454 24.1744 14.4596 24.1746 15.615V21.9057C24.1746 23.0609 23.0139 23.9751 21.5184 23.9751H12.481C10.9852 23.9751 9.8248 23.0611 9.8248 21.9057V15.615C9.8248 14.4599 10.9852 13.5457 12.481 13.5457H14.8464V14.9143H12.481C12.1215 14.9143 11.8015 15.0061 11.5707 15.1383C11.4553 15.2043 11.3615 15.2809 11.2963 15.3619C11.2311 15.4428 11.1934 15.5295 11.1934 15.615V21.9055C11.1934 21.9911 11.2311 22.0777 11.2963 22.1586C11.3615 22.2396 11.4553 22.3162 11.5707 22.3823C11.8015 22.5144 12.1215 22.6062 12.481 22.6062H21.5181C21.8777 22.6062 22.1977 22.5144 22.4285 22.3823C22.5439 22.3162 22.6377 22.2396 22.7029 22.1586C22.768 22.0777 22.8057 21.9911 22.8057 21.9055V15.6148C22.8057 15.5292 22.768 15.4425 22.7029 15.3617C22.6377 15.2807 22.5439 15.2041 22.4285 15.138C22.1977 15.0058 21.8777 14.9141 21.5181 14.9141H19.1523Z" fill="#A3A3A3" stroke="white" stroke-width="0.05"/>
<path d="M16.3145 10.44V10.3797L16.2718 10.4224L15.3838 11.3104C15.2501 11.4441 15.0752 11.5109 14.9 11.5109C14.7248 11.5109 14.5498 11.4441 14.4159 11.3104C14.1486 11.0433 14.1486 10.6099 14.4159 10.3428L14.4159 10.3428L16.5337 8.22503C16.6674 8.09138 16.8423 8.025 17.0173 8.025H17.0173H17.0173H17.0173H17.0173H17.0173H17.0173H17.0174H17.0174H17.0174H17.0174H17.0174H17.0174H17.0174H17.0174H17.0174H17.0175H17.0175H17.0175H17.0175H17.0175H17.0175H17.0175H17.0175H17.0175H17.0176H17.0176H17.0176H17.0176H17.0176H17.0176H17.0176H17.0176H17.0176H17.0177H17.0177H17.0177H17.0177H17.0177H17.0177H17.0177H17.0177H17.0177H17.0178H17.0178H17.0178H17.0178H17.0178H17.0178H17.0178H17.0178H17.0178H17.0179H17.0179H17.0179H17.0179H17.0179H17.0179H17.0179H17.0179H17.0179H17.0179H17.018H17.018H17.018H17.018H17.018H17.018H17.018H17.018H17.018H17.0181H17.0181H17.0181H17.0181H17.0181H17.0181H17.0181H17.0181H17.0181H17.0182H17.0182H17.0182H17.0182H17.0182H17.0182H17.0182H17.0182H17.0182H17.0182H17.0183H17.0183H17.0183H17.0183H17.0183H17.0183H17.0183H17.0183H17.0183H17.0184H17.0184H17.0184H17.0184H17.0184H17.0184H17.0184H17.0184H17.0184H17.0185H17.0185H17.0185H17.0185H17.0185H17.0185H17.0185H17.0185H17.0185H17.0185H17.0186H17.0186H17.0186H17.0186H17.0186H17.0186H17.0186H17.0186H17.0186H17.0187H17.0187H17.0187H17.0187H17.0187H17.0187H17.0187H17.0187H17.0187H17.0187H17.0188H17.0188H17.0188H17.0188H17.0188H17.0188H17.0188H17.0188H17.0188H17.0189H17.0189H17.0189H17.0189H17.0189H17.0189H17.0189H17.0189H17.0189H17.0189H17.019H17.019H17.019H17.019H17.019H17.019H17.019H17.019H17.019H17.0191H17.0191H17.0191H17.0191H17.0191H17.0191H17.0191H17.0191H17.0191H17.0191H17.0192H17.0192H17.0192H17.0192H17.0192H17.0192H17.0192H17.0192H17.0192H17.0193H17.0193H17.0193H17.0193H17.0193H17.0193H17.0193H17.0193H17.0193H17.0193H17.0194H17.0194H17.0194H17.0194H17.0194H17.0194H17.0194H17.0194H17.0194H17.0195H17.0195H17.0195H17.0195H17.0195H17.0195H17.0195H17.0195H17.0195H17.0195H17.0196H17.0196H17.0196H17.0196H17.0196H17.0196H17.0196H17.0196H17.0196H17.0196H17.0197H17.0197H17.0197H17.0197H17.0197H17.0197H17.0197H17.0197H17.0197H17.0198H17.0198H17.0198H17.0198H17.0198H17.0198H17.0198H17.0198H17.0198H17.0198H17.0199H17.0199H17.0199H17.0199H17.0199H17.0199H17.0199H17.0199H17.0199H17.0199H17.02H17.02H17.02H17.02H17.02H17.02H17.02H17.02H17.02H17.0201H17.0201H17.0201H17.0201H17.0201H17.0201H17.0201H17.0201H17.0201H17.0201H17.0202H17.0202H17.0202H17.0202H17.0202H17.0202H17.0202H17.0202H17.0202H17.0203H17.0203H17.0203H17.0203H17.0203H17.0203H17.0203H17.0203H17.0203H17.0203H17.0204H17.0204H17.0204H17.0204H17.0204H17.0204H17.0204H17.0204H17.0204H17.0204H17.0205H17.0205H17.0205H17.0205H17.0205H17.0205H17.0205H17.0205H17.0205H17.0206H17.0206H17.0206H17.0206H17.0206H17.0206H17.0206H17.0206H17.0206H17.0206H17.0207H17.0207H17.0207H17.0207H17.0207H17.0207H17.0207H17.0207H17.0207H17.0208H17.0208H17.0208H17.0208H17.0208H17.0208H17.0208H17.0208H17.0208H17.0208H17.0209H17.0209H17.0209H17.0209H17.0209H17.0209H17.0209H17.0209H17.0209H17.021H17.021H17.021H17.021H17.021H17.021H17.021H17.021H17.021H17.021H17.0211H17.0211H17.0211H17.0211H17.0211H17.0211H17.0211H17.0211H17.0211H17.0211H17.0212H17.0212H17.0212H17.0212H17.0212H17.0212H17.0212H17.0212H17.0212H17.0213H17.0213H17.0213H17.0213H17.0213H17.0213H17.0213H17.0213H17.0213H17.0214H17.0214H17.0214H17.0214H17.0214H17.0214H17.0214H17.0214H17.0214H17.0214H17.0215H17.0215H17.0215H17.0215H17.0215H17.0215H17.0215H17.0215H17.0215H17.0216H17.0216H17.0216H17.0216H17.0216H17.0216H17.0216H17.0216H17.0216H17.0216H17.0217H17.0217H17.0217H17.0217H17.0217H17.0217H17.0217H17.0217H17.0217H17.0218H17.0218H17.0218H17.0218H17.0218H17.0218H17.0218H17.0218H17.0218H17.0219H17.0219H17.0219H17.0219H17.0219H17.0219H17.0219H17.0219H17.0219H17.0219H17.022H17.022H17.022H17.022H17.022H17.022H17.022H17.022H17.022H17.0221H17.0221H17.0221H17.0221H17.0221H17.0221H17.0221H17.0221H17.0221H17.0222H17.0222H17.0222H17.0222H17.0222H17.0222H17.0222H17.0222H17.0222H17.0222H17.0223H17.0223H17.0223H17.0223H17.0223H17.0223H17.0223H17.0223H17.0223H17.0224H17.0224H17.0224H17.0224H17.0224H17.0224H17.0224H17.0224H17.0224H17.0225H17.0225H17.0225H17.0225H17.0225H17.0225H17.0225H17.0225H17.0225H17.0226H17.0226H17.0226H17.0226H17.0226H17.0226H17.0226H17.0226H17.0226H17.0227H17.0227H17.0227H17.0227H17.0227H17.0227H17.0227H17.0227H17.0227H17.0228H17.0228H17.0228H17.0228H17.0228H17.0228H17.0228H17.0228H17.0228H17.0229H17.0229H17.0229H17.0229H17.0229H17.0229H17.0229H17.0229H17.0229H17.023H17.023H17.023H17.023H17.023H17.023H17.023H17.023H17.023H17.0231H17.0231H17.0231H17.0231H17.0231H17.0231H17.0231H17.0231H17.0231H17.0231H17.0232H17.0232H17.0232H17.0232H17.0232H17.0232H17.0232H17.0232H17.0232H17.0233H17.0233H17.0233H17.0233H17.0233H17.0233H17.0233H17.0233H17.0233H17.0234H17.0234H17.0234H17.0234H17.0234H17.0234H17.0234H17.0234H17.0234H17.0235H17.0235H17.0235H17.0235H17.0235H17.0235H17.0235H17.0235H17.0235H17.0235H17.0236H17.0236H17.0236H17.0236H17.0236H17.0236H17.0236H17.0236H17.0236H17.0237H17.0237H17.0237H17.0237H17.0237H17.0237H17.0237H17.0237H17.0237H17.0238H17.0238H17.0238H17.0238H17.0238H17.0238H17.0238H17.0238H17.0238H17.0238H17.0239H17.0239H17.0239H17.0239H17.0239H17.0239H17.0239H17.0239H17.0239H17.024H17.024H17.024H17.024H17.024H17.024H17.024H17.024H17.024H17.024H17.0241H17.0241H17.0241H17.0241H17.0241H17.0241H17.0241H17.0241H17.0241H17.0242H17.0242H17.0242H17.0242H17.0242H17.0242H17.0242H17.0242H17.0242H17.0243H17.0243H17.0243H17.0243H17.0243H17.0243H17.0243H17.0243H17.0243H17.0243H17.0244H17.0244H17.0244H17.0244H17.0244H17.0244H17.0244H17.0244H17.0244H17.0245H17.0245H17.0245H17.0245H17.0245H17.0245H17.0245H17.0245H17.0245H17.0245H17.0246H17.0246H17.0246H17.0246H17.0246H17.0246H17.0246H17.0246H17.0246H17.0246H17.0247H17.0247H17.0247H17.0247H17.0247H17.0247H17.0247H17.0247H17.0247H17.0248H17.0248H17.0248H17.0248H17.0248H17.0248H17.0248H17.0248H17.0248H17.0248H17.0249H17.0249H17.0249H17.0249H17.0249H17.0249H17.0249H17.0249H17.0249H17.025H17.025H17.025H17.025H17.025H17.025H17.025H17.025H17.025H17.025H17.0251H17.0251H17.0251H17.0251H17.0251H17.0251H17.0251H17.0251H17.0251H17.0251H17.0252H17.0252H17.0252H17.0252H17.0252H17.0252H17.0252H17.0252H17.0252H17.0253H17.0253H17.0253H17.0253H17.0253H17.0253H17.0253H17.0253H17.0253H17.0253H17.0254H17.0254H17.0254H17.0254H17.0254H17.0254H17.0254H17.0254H17.0254H17.0255H17.0255H17.0255H17.0255H17.0255H17.0255H17.0255H17.0255H17.0255H17.0255H17.0256H17.0256H17.0256H17.0256H17.0256H17.0256H17.0256H17.0256H17.0256H17.0256H17.0257H17.0257H17.0257H17.0257H17.0257H17.0257H17.0257H17.0257H17.0257H17.0258H17.0258H17.0258H17.0258H17.0258H17.0258H17.0258H17.0258H17.0258H17.0258H17.0259H17.0259H17.0259H17.0259H17.0259H17.0259H17.0259H17.0259H17.0259H17.0259H17.026H17.026H17.026H17.026H17.026H17.026H17.026H17.026H17.026H17.0261H17.0261H17.0261H17.0261H17.0261H17.0261H17.0261H17.0261H17.0261H17.0261H17.0262H17.0262H17.0262H17.0262H17.0262H17.0262H17.0262H17.0262H17.0262H17.0263H17.0263H17.0263H17.0263H17.0263H17.0263H17.0263H17.0263H17.0263H17.0263H17.0264H17.0264H17.0264H17.0264H17.0264H17.0264H17.0264H17.0264H17.0264H17.0265H17.0265H17.0265H17.0265H17.0265H17.0265H17.0265H17.0265H17.0265H17.0265H17.0266H17.0266H17.0266H17.0266H17.0266H17.0266H17.0266H17.0266H17.0266H17.0267H17.0267H17.0267H17.0267H17.0267H17.0267H17.0267H17.0267H17.0267H17.0267H17.0268H17.0268H17.0268H17.0268H17.0268H17.0268H17.0268H17.0268H17.0268H17.0269H17.0269H17.0269H17.0269H17.0269H17.0269H17.0269H17.0269H17.0269H17.0269H17.027H17.027H17.027H17.027H17.027H17.027H17.027H17.027H17.027H17.0271H17.0271H17.0271H17.0271H17.0271H17.0271H17.0271H17.0271H17.0271H17.0271H17.0272H17.0272H17.0272H17.0272H17.0272H17.0272H17.0272H17.0272H17.0272H17.0273H17.0273H17.0273H17.0273H17.0273H17.0273H17.0273H17.0273H17.0273H17.0274H17.0274H17.0274H17.0274H17.0274H17.0274H17.0274H17.0274H17.0274H17.0274H17.0275H17.0275H17.0275H17.0275H17.0275H17.0275H17.0275H17.0275H17.0275H17.0276H17.0276H17.0276H17.0276H17.0276H17.0276H17.0276H17.0276H17.0276H17.0277H17.0277H17.0277H17.0277H17.0277H17.0277H17.0277H17.0277H17.0277H17.0278H17.0278H17.0278H17.0278H17.0278H17.0278H17.0278H17.0278H17.0278H17.0279H17.0279H17.0279H17.0279H17.0279H17.0279H17.0279H17.0279H17.0279H17.0279H17.028H17.028H17.028H17.028H17.028H17.028H17.028H17.028H17.028H17.0281H17.0281H17.0281H17.0281H17.0281H17.0281H17.0281H17.0281H17.0281H17.0282C17.2032 8.025 17.3781 8.09138 17.5117 8.22503L19.6295 10.3428L19.6295 10.3428C19.8968 10.6099 19.8968 11.0433 19.6295 11.3104L19.6295 11.3104C19.4958 11.4441 19.3207 11.5109 19.1457 11.5109C18.9707 11.5109 18.7956 11.4441 18.6619 11.3104L17.7258 10.3744L17.6832 10.3317V10.392V13.5204V14.939V17.6566C17.6832 18.0346 17.3768 18.3409 16.9988 18.3409C16.6209 18.3409 16.3145 18.0346 16.3145 17.6566V14.939V13.5204V10.44Z" fill="#A3A3A3" stroke="white" stroke-width="0.05"/>
</svg>
