<svg width="34" height="34" viewBox="0 0 34 34" fill="none" xmlns="http://www.w3.org/2000/svg">
<circle cx="17" cy="17.0002" r="16.5" stroke="#2469F0"/>
<path d="M23.4526 11.6603H15.1831C14.9216 10.9755 14.2582 10.4873 13.482 10.4873C12.7058 10.4873 12.0425 10.9755 11.781 11.6603H10.5495C10.1919 11.6603 9.90195 11.9503 9.90195 12.3079C9.90195 12.6655 10.1919 12.9555 10.5495 12.9555H11.781C12.0425 13.6403 12.7059 14.1285 13.4821 14.1285C14.2583 14.1285 14.9216 13.6403 15.1831 12.9555H23.4526C23.8103 12.9555 24.1002 12.6655 24.1002 12.3079C24.1002 11.9503 23.8103 11.6603 23.4526 11.6603ZM13.482 12.8333C13.1924 12.8333 12.9566 12.5975 12.9566 12.3079C12.9566 12.0183 13.1924 11.7825 13.482 11.7825C13.7717 11.7825 14.0075 12.0183 14.0075 12.3079C14.0075 12.5975 13.7717 12.8333 13.482 12.8333Z" fill="#2469F0" stroke="#2469F0" stroke-width="0.2"/>
<path d="M23.4526 16.3524H22.2211C21.9596 15.6676 21.2962 15.1794 20.5201 15.1794C19.7439 15.1794 19.0806 15.6676 18.819 16.3524H10.5495C10.1919 16.3524 9.90195 16.6424 9.90195 17C9.90195 17.3576 10.1919 17.6476 10.5495 17.6476H18.819C19.0806 18.3324 19.7439 18.8205 20.5201 18.8205C21.2963 18.8205 21.9596 18.3324 22.2211 17.6476H23.4526C23.8103 17.6476 24.1002 17.3576 24.1002 17C24.1002 16.6423 23.8103 16.3524 23.4526 16.3524ZM20.5201 17.5254C20.2305 17.5254 19.9947 17.2896 19.9947 17C19.9947 16.7104 20.2305 16.4746 20.5201 16.4746C20.8097 16.4746 21.0455 16.7104 21.0455 17C21.0455 17.2896 20.8097 17.5254 20.5201 17.5254Z" fill="#2469F0" stroke="#2469F0" stroke-width="0.2"/>
<path d="M23.4526 21.0443H17.5291C17.2676 20.3595 16.6043 19.8713 15.8281 19.8713C15.0519 19.8713 14.3885 20.3595 14.127 21.0443H10.5495C10.1919 21.0443 9.90195 21.3343 9.90195 21.6919C9.90195 22.0495 10.1919 22.3395 10.5495 22.3395H14.127C14.3885 23.0243 15.0519 23.5125 15.8281 23.5125C16.6043 23.5125 17.2676 23.0243 17.5291 22.3395H23.4526C23.8103 22.3395 24.1002 22.0495 24.1002 21.6919C24.1002 21.3343 23.8103 21.0443 23.4526 21.0443ZM15.8281 22.2174C15.5384 22.2174 15.3026 21.9816 15.3026 21.6919C15.3026 21.4023 15.5384 21.1665 15.8281 21.1665C16.1177 21.1665 16.3535 21.4023 16.3535 21.6919C16.3535 21.9815 16.1177 22.2174 15.8281 22.2174Z" fill="#2469F0" stroke="#2469F0" stroke-width="0.2"/>
</svg>
